<mxfile host="app.diagrams.net" modified="2024-01-31T09:08:13.993Z" agent="Mozilla/5.0 (Macintosh; Intel Mac OS X 10_15_7) AppleWebKit/537.36 (KHTML, like Gecko) Chrome/121.0.0.0 Safari/537.36" etag="Q6SvyqHeHbSXsWJaB8Z-" version="23.0.2" type="device">
  <diagram id="C5RBs43oDa-KdzZeNtuy" name="Page-1">
    <mxGraphModel dx="4843" dy="1384" grid="1" gridSize="10" guides="1" tooltips="1" connect="1" arrows="1" fold="1" page="1" pageScale="1" pageWidth="827" pageHeight="1169" math="0" shadow="0">
      <root>
        <mxCell id="WIyWlLk6GJQsqaUBKTNV-0" />
        <mxCell id="WIyWlLk6GJQsqaUBKTNV-1" parent="WIyWlLk6GJQsqaUBKTNV-0" />
        <mxCell id="hzWF-uooDt9kW6sM20Ad-19" value="&lt;font style=&quot;font-size: 24px;&quot;&gt;Diagramme de cas d&#39;utilisation&lt;/font&gt;" style="text;html=1;strokeColor=none;fillColor=none;align=center;verticalAlign=middle;whiteSpace=wrap;rounded=0;" parent="WIyWlLk6GJQsqaUBKTNV-1" vertex="1">
          <mxGeometry x="-1850" y="50" width="400" height="30" as="geometry" />
        </mxCell>
        <mxCell id="vGBTADAAOYeY_URPficA-150" value="Admin" style="shape=umlActor;verticalLabelPosition=bottom;verticalAlign=top;html=1;outlineConnect=0;fillColor=#dae8fc;strokeColor=#6c8ebf;" parent="WIyWlLk6GJQsqaUBKTNV-1" vertex="1">
          <mxGeometry x="-2100" y="273" width="30" height="60" as="geometry" />
        </mxCell>
        <mxCell id="vGBTADAAOYeY_URPficA-151" value="Employee" style="shape=umlActor;verticalLabelPosition=bottom;verticalAlign=top;html=1;outlineConnect=0;fillColor=#d5e8d4;strokeColor=#82b366;" parent="WIyWlLk6GJQsqaUBKTNV-1" vertex="1">
          <mxGeometry x="-2100" y="650" width="30" height="60" as="geometry" />
        </mxCell>
        <mxCell id="vGBTADAAOYeY_URPficA-152" value="Veterinary" style="shape=umlActor;verticalLabelPosition=bottom;verticalAlign=top;html=1;outlineConnect=0;fillColor=#e1d5e7;strokeColor=#9673a6;" parent="WIyWlLk6GJQsqaUBKTNV-1" vertex="1">
          <mxGeometry x="-2100" y="895" width="30" height="60" as="geometry" />
        </mxCell>
        <mxCell id="vGBTADAAOYeY_URPficA-153" value="" style="shape=folder;fontStyle=1;spacingTop=10;tabWidth=150;tabHeight=22;tabPosition=left;html=1;whiteSpace=wrap;" parent="WIyWlLk6GJQsqaUBKTNV-1" vertex="1">
          <mxGeometry x="-1940" y="126" width="572" height="1104" as="geometry" />
        </mxCell>
        <mxCell id="vGBTADAAOYeY_URPficA-154" value="Se connecter" style="ellipse;whiteSpace=wrap;html=1;" parent="WIyWlLk6GJQsqaUBKTNV-1" vertex="1">
          <mxGeometry x="-1528" y="400" width="120" height="80" as="geometry" />
        </mxCell>
        <mxCell id="vGBTADAAOYeY_URPficA-158" value="Gerer les services proposer" style="ellipse;whiteSpace=wrap;html=1;" parent="WIyWlLk6GJQsqaUBKTNV-1" vertex="1">
          <mxGeometry x="-1940" y="560" width="120" height="80" as="geometry" />
        </mxCell>
        <mxCell id="vGBTADAAOYeY_URPficA-159" value="Arcadia - Zoo" style="text;html=1;strokeColor=none;fillColor=none;align=center;verticalAlign=middle;whiteSpace=wrap;rounded=0;" parent="WIyWlLk6GJQsqaUBKTNV-1" vertex="1">
          <mxGeometry x="-1920" y="120" width="110" height="30" as="geometry" />
        </mxCell>
        <mxCell id="vGBTADAAOYeY_URPficA-160" value="BDD" style="shape=umlActor;verticalLabelPosition=bottom;verticalAlign=top;html=1;outlineConnect=0;" parent="WIyWlLk6GJQsqaUBKTNV-1" vertex="1">
          <mxGeometry x="-1288" y="370" width="30" height="60" as="geometry" />
        </mxCell>
        <mxCell id="vGBTADAAOYeY_URPficA-161" value="Boite mail du zoo&lt;br&gt;" style="shape=umlActor;verticalLabelPosition=bottom;verticalAlign=top;html=1;outlineConnect=0;" parent="WIyWlLk6GJQsqaUBKTNV-1" vertex="1">
          <mxGeometry x="-1288" y="750" width="30" height="60" as="geometry" />
        </mxCell>
        <mxCell id="vGBTADAAOYeY_URPficA-164" value="Gestion des comptes" style="ellipse;whiteSpace=wrap;html=1;" parent="WIyWlLk6GJQsqaUBKTNV-1" vertex="1">
          <mxGeometry x="-1930" y="150" width="120" height="80" as="geometry" />
        </mxCell>
        <mxCell id="vGBTADAAOYeY_URPficA-165" value="Gestion des habitats" style="ellipse;whiteSpace=wrap;html=1;" parent="WIyWlLk6GJQsqaUBKTNV-1" vertex="1">
          <mxGeometry x="-1930" y="230" width="120" height="80" as="geometry" />
        </mxCell>
        <mxCell id="vGBTADAAOYeY_URPficA-166" value="Gestion des horaires d&#39;ouverture" style="ellipse;whiteSpace=wrap;html=1;" parent="WIyWlLk6GJQsqaUBKTNV-1" vertex="1">
          <mxGeometry x="-1930" y="310" width="120" height="80" as="geometry" />
        </mxCell>
        <mxCell id="vGBTADAAOYeY_URPficA-167" value="Observer les comptes rendu" style="ellipse;whiteSpace=wrap;html=1;" parent="WIyWlLk6GJQsqaUBKTNV-1" vertex="1">
          <mxGeometry x="-1930" y="390" width="120" height="80" as="geometry" />
        </mxCell>
        <mxCell id="vGBTADAAOYeY_URPficA-181" value="Traiter le formulaire de connexion" style="ellipse;whiteSpace=wrap;html=1;" parent="WIyWlLk6GJQsqaUBKTNV-1" vertex="1">
          <mxGeometry x="-1578" y="740" width="120" height="80" as="geometry" />
        </mxCell>
        <mxCell id="vGBTADAAOYeY_URPficA-182" value="Afficher le formulaire" style="ellipse;whiteSpace=wrap;html=1;" parent="WIyWlLk6GJQsqaUBKTNV-1" vertex="1">
          <mxGeometry x="-1648" y="230" width="120" height="80" as="geometry" />
        </mxCell>
        <mxCell id="vGBTADAAOYeY_URPficA-210" value="" style="endArrow=none;html=1;rounded=0;" parent="WIyWlLk6GJQsqaUBKTNV-1" source="vGBTADAAOYeY_URPficA-150" target="vGBTADAAOYeY_URPficA-166" edge="1">
          <mxGeometry width="50" height="50" relative="1" as="geometry">
            <mxPoint x="-1700" y="573" as="sourcePoint" />
            <mxPoint x="-1650" y="523" as="targetPoint" />
          </mxGeometry>
        </mxCell>
        <mxCell id="vGBTADAAOYeY_URPficA-212" value="" style="endArrow=none;html=1;rounded=0;" parent="WIyWlLk6GJQsqaUBKTNV-1" source="vGBTADAAOYeY_URPficA-151" target="vGBTADAAOYeY_URPficA-158" edge="1">
          <mxGeometry width="50" height="50" relative="1" as="geometry">
            <mxPoint x="-1950" y="563" as="sourcePoint" />
            <mxPoint x="-1900" y="513" as="targetPoint" />
          </mxGeometry>
        </mxCell>
        <mxCell id="vGBTADAAOYeY_URPficA-213" value="" style="endArrow=none;html=1;rounded=0;" parent="WIyWlLk6GJQsqaUBKTNV-1" source="vGBTADAAOYeY_URPficA-150" target="vGBTADAAOYeY_URPficA-164" edge="1">
          <mxGeometry width="50" height="50" relative="1" as="geometry">
            <mxPoint x="-2020" y="391" as="sourcePoint" />
            <mxPoint x="-1810" y="391" as="targetPoint" />
          </mxGeometry>
        </mxCell>
        <mxCell id="vGBTADAAOYeY_URPficA-214" value="Valider commentaire" style="ellipse;whiteSpace=wrap;html=1;" parent="WIyWlLk6GJQsqaUBKTNV-1" vertex="1">
          <mxGeometry x="-1940" y="720" width="120" height="80" as="geometry" />
        </mxCell>
        <mxCell id="vGBTADAAOYeY_URPficA-216" value="Nourrire animal" style="ellipse;whiteSpace=wrap;html=1;" parent="WIyWlLk6GJQsqaUBKTNV-1" vertex="1">
          <mxGeometry x="-1940" y="640" width="120" height="80" as="geometry" />
        </mxCell>
        <mxCell id="vGBTADAAOYeY_URPficA-217" value="" style="endArrow=none;html=1;rounded=0;" parent="WIyWlLk6GJQsqaUBKTNV-1" source="vGBTADAAOYeY_URPficA-151" target="vGBTADAAOYeY_URPficA-216" edge="1">
          <mxGeometry width="50" height="50" relative="1" as="geometry">
            <mxPoint x="-2030" y="458" as="sourcePoint" />
            <mxPoint x="-1788" y="414" as="targetPoint" />
          </mxGeometry>
        </mxCell>
        <mxCell id="vGBTADAAOYeY_URPficA-218" value="Compte rendu" style="ellipse;whiteSpace=wrap;html=1;" parent="WIyWlLk6GJQsqaUBKTNV-1" vertex="1">
          <mxGeometry x="-1930" y="815" width="120" height="80" as="geometry" />
        </mxCell>
        <mxCell id="vGBTADAAOYeY_URPficA-219" value="" style="endArrow=none;html=1;rounded=0;" parent="WIyWlLk6GJQsqaUBKTNV-1" source="vGBTADAAOYeY_URPficA-150" target="vGBTADAAOYeY_URPficA-165" edge="1">
          <mxGeometry width="50" height="50" relative="1" as="geometry">
            <mxPoint x="-2020" y="247" as="sourcePoint" />
            <mxPoint x="-1786" y="308" as="targetPoint" />
          </mxGeometry>
        </mxCell>
        <mxCell id="vGBTADAAOYeY_URPficA-220" value="" style="shape=flexArrow;endArrow=classic;html=1;rounded=0;" parent="WIyWlLk6GJQsqaUBKTNV-1" edge="1">
          <mxGeometry width="50" height="50" relative="1" as="geometry">
            <mxPoint x="-2085.3100000000004" y="430" as="sourcePoint" />
            <mxPoint x="-2085.63" y="570" as="targetPoint" />
          </mxGeometry>
        </mxCell>
        <mxCell id="vGBTADAAOYeY_URPficA-222" value="" style="endArrow=none;html=1;rounded=0;" parent="WIyWlLk6GJQsqaUBKTNV-1" source="vGBTADAAOYeY_URPficA-151" target="vGBTADAAOYeY_URPficA-214" edge="1">
          <mxGeometry width="50" height="50" relative="1" as="geometry">
            <mxPoint x="-1700" y="623" as="sourcePoint" />
            <mxPoint x="-1650" y="573" as="targetPoint" />
          </mxGeometry>
        </mxCell>
        <mxCell id="vGBTADAAOYeY_URPficA-223" value="" style="endArrow=none;html=1;rounded=0;" parent="WIyWlLk6GJQsqaUBKTNV-1" source="vGBTADAAOYeY_URPficA-167" target="vGBTADAAOYeY_URPficA-150" edge="1">
          <mxGeometry width="50" height="50" relative="1" as="geometry">
            <mxPoint x="-1700" y="593" as="sourcePoint" />
            <mxPoint x="-1650" y="543" as="targetPoint" />
          </mxGeometry>
        </mxCell>
        <mxCell id="vGBTADAAOYeY_URPficA-224" value="" style="endArrow=none;html=1;rounded=0;" parent="WIyWlLk6GJQsqaUBKTNV-1" source="vGBTADAAOYeY_URPficA-218" target="vGBTADAAOYeY_URPficA-152" edge="1">
          <mxGeometry width="50" height="50" relative="1" as="geometry">
            <mxPoint x="-1900" y="763" as="sourcePoint" />
            <mxPoint x="-1850" y="713" as="targetPoint" />
          </mxGeometry>
        </mxCell>
        <mxCell id="vGBTADAAOYeY_URPficA-225" value="Mettre commentaire sur les habitats" style="ellipse;whiteSpace=wrap;html=1;" parent="WIyWlLk6GJQsqaUBKTNV-1" vertex="1">
          <mxGeometry x="-1930" y="895" width="120" height="80" as="geometry" />
        </mxCell>
        <mxCell id="vGBTADAAOYeY_URPficA-226" value="" style="endArrow=none;html=1;rounded=0;" parent="WIyWlLk6GJQsqaUBKTNV-1" source="vGBTADAAOYeY_URPficA-225" target="vGBTADAAOYeY_URPficA-152" edge="1">
          <mxGeometry width="50" height="50" relative="1" as="geometry">
            <mxPoint x="-1930" y="893" as="sourcePoint" />
            <mxPoint x="-1880" y="843" as="targetPoint" />
          </mxGeometry>
        </mxCell>
        <mxCell id="vGBTADAAOYeY_URPficA-227" value="Voir la nourriture donner aux animaux" style="ellipse;whiteSpace=wrap;html=1;" parent="WIyWlLk6GJQsqaUBKTNV-1" vertex="1">
          <mxGeometry x="-1930" y="975" width="120" height="80" as="geometry" />
        </mxCell>
        <mxCell id="vGBTADAAOYeY_URPficA-228" value="" style="endArrow=none;html=1;rounded=0;" parent="WIyWlLk6GJQsqaUBKTNV-1" source="vGBTADAAOYeY_URPficA-227" target="vGBTADAAOYeY_URPficA-152" edge="1">
          <mxGeometry width="50" height="50" relative="1" as="geometry">
            <mxPoint x="-1802" y="884" as="sourcePoint" />
            <mxPoint x="-2010" y="740" as="targetPoint" />
          </mxGeometry>
        </mxCell>
        <mxCell id="vGBTADAAOYeY_URPficA-230" value="Visitor" style="shape=umlActor;verticalLabelPosition=bottom;verticalAlign=top;html=1;outlineConnect=0;" parent="WIyWlLk6GJQsqaUBKTNV-1" vertex="1">
          <mxGeometry x="-2100" y="1065" width="30" height="60" as="geometry" />
        </mxCell>
        <mxCell id="vGBTADAAOYeY_URPficA-231" value="Laisser un commentaire" style="ellipse;whiteSpace=wrap;html=1;" parent="WIyWlLk6GJQsqaUBKTNV-1" vertex="1">
          <mxGeometry x="-1930" y="1055" width="120" height="80" as="geometry" />
        </mxCell>
        <mxCell id="vGBTADAAOYeY_URPficA-232" value="" style="endArrow=none;html=1;rounded=0;" parent="WIyWlLk6GJQsqaUBKTNV-1" source="vGBTADAAOYeY_URPficA-231" target="vGBTADAAOYeY_URPficA-230" edge="1">
          <mxGeometry width="50" height="50" relative="1" as="geometry">
            <mxPoint x="-1816" y="995" as="sourcePoint" />
            <mxPoint x="-2008" y="1090" as="targetPoint" />
          </mxGeometry>
        </mxCell>
        <mxCell id="vGBTADAAOYeY_URPficA-233" value="CRUD" style="ellipse;whiteSpace=wrap;html=1;" parent="WIyWlLk6GJQsqaUBKTNV-1" vertex="1">
          <mxGeometry x="-1662" y="546" width="120" height="80" as="geometry" />
        </mxCell>
        <mxCell id="vGBTADAAOYeY_URPficA-234" value="" style="endArrow=classic;dashed=1;html=1;rounded=0;endFill=1;" parent="WIyWlLk6GJQsqaUBKTNV-1" source="vGBTADAAOYeY_URPficA-233" target="vGBTADAAOYeY_URPficA-158" edge="1">
          <mxGeometry width="50" height="50" relative="1" as="geometry">
            <mxPoint x="-1700" y="293" as="sourcePoint" />
            <mxPoint x="-1650" y="243" as="targetPoint" />
          </mxGeometry>
        </mxCell>
        <mxCell id="vGBTADAAOYeY_URPficA-254" value="&amp;lt;&amp;lt;include&amp;gt;&amp;gt;" style="edgeLabel;html=1;align=center;verticalAlign=middle;resizable=0;points=[];" parent="vGBTADAAOYeY_URPficA-234" vertex="1" connectable="0">
          <mxGeometry x="0.2941" y="2" relative="1" as="geometry">
            <mxPoint as="offset" />
          </mxGeometry>
        </mxCell>
        <mxCell id="vGBTADAAOYeY_URPficA-235" value="" style="endArrow=classic;dashed=1;html=1;rounded=0;endFill=1;" parent="WIyWlLk6GJQsqaUBKTNV-1" source="vGBTADAAOYeY_URPficA-233" target="vGBTADAAOYeY_URPficA-164" edge="1">
          <mxGeometry width="50" height="50" relative="1" as="geometry">
            <mxPoint x="-1584" y="568" as="sourcePoint" />
            <mxPoint x="-1752" y="448" as="targetPoint" />
          </mxGeometry>
        </mxCell>
        <mxCell id="vGBTADAAOYeY_URPficA-251" value="&amp;lt;&amp;lt;include&amp;gt;&amp;gt;" style="edgeLabel;html=1;align=center;verticalAlign=middle;resizable=0;points=[];" parent="vGBTADAAOYeY_URPficA-235" vertex="1" connectable="0">
          <mxGeometry x="0.1341" y="-4" relative="1" as="geometry">
            <mxPoint as="offset" />
          </mxGeometry>
        </mxCell>
        <mxCell id="vGBTADAAOYeY_URPficA-236" value="" style="endArrow=classic;dashed=1;html=1;rounded=0;endFill=1;" parent="WIyWlLk6GJQsqaUBKTNV-1" source="vGBTADAAOYeY_URPficA-233" target="vGBTADAAOYeY_URPficA-165" edge="1">
          <mxGeometry width="50" height="50" relative="1" as="geometry">
            <mxPoint x="-1666" y="406" as="sourcePoint" />
            <mxPoint x="-1804" y="443" as="targetPoint" />
          </mxGeometry>
        </mxCell>
        <mxCell id="vGBTADAAOYeY_URPficA-252" value="&amp;lt;&amp;lt;include&amp;gt;&amp;gt;" style="edgeLabel;html=1;align=center;verticalAlign=middle;resizable=0;points=[];" parent="vGBTADAAOYeY_URPficA-236" vertex="1" connectable="0">
          <mxGeometry x="0.3219" y="-1" relative="1" as="geometry">
            <mxPoint as="offset" />
          </mxGeometry>
        </mxCell>
        <mxCell id="vGBTADAAOYeY_URPficA-238" value="" style="endArrow=classic;dashed=1;html=1;rounded=0;startArrow=none;startFill=0;endFill=1;" parent="WIyWlLk6GJQsqaUBKTNV-1" source="vGBTADAAOYeY_URPficA-233" target="vGBTADAAOYeY_URPficA-166" edge="1">
          <mxGeometry width="50" height="50" relative="1" as="geometry">
            <mxPoint x="-1655" y="417" as="sourcePoint" />
            <mxPoint x="-1815" y="512" as="targetPoint" />
          </mxGeometry>
        </mxCell>
        <mxCell id="vGBTADAAOYeY_URPficA-253" value="&amp;lt;&amp;lt;include&amp;gt;&amp;gt;" style="edgeLabel;html=1;align=center;verticalAlign=middle;resizable=0;points=[];" parent="vGBTADAAOYeY_URPficA-238" vertex="1" connectable="0">
          <mxGeometry x="0.4103" y="-2" relative="1" as="geometry">
            <mxPoint as="offset" />
          </mxGeometry>
        </mxCell>
        <mxCell id="vGBTADAAOYeY_URPficA-239" value="" style="endArrow=none;dashed=1;html=1;rounded=0;endFill=0;startArrow=classic;startFill=1;" parent="WIyWlLk6GJQsqaUBKTNV-1" source="vGBTADAAOYeY_URPficA-154" target="vGBTADAAOYeY_URPficA-233" edge="1">
          <mxGeometry width="50" height="50" relative="1" as="geometry">
            <mxPoint x="-1290" y="583" as="sourcePoint" />
            <mxPoint x="-1361.654153787732" y="607.310535355989" as="targetPoint" />
          </mxGeometry>
        </mxCell>
        <mxCell id="vGBTADAAOYeY_URPficA-256" value="&amp;lt;&amp;lt;include&amp;gt;&amp;gt;" style="edgeLabel;html=1;align=center;verticalAlign=middle;resizable=0;points=[];" parent="vGBTADAAOYeY_URPficA-239" vertex="1" connectable="0">
          <mxGeometry x="0.3063" relative="1" as="geometry">
            <mxPoint x="18" as="offset" />
          </mxGeometry>
        </mxCell>
        <mxCell id="vGBTADAAOYeY_URPficA-241" value="" style="endArrow=none;dashed=1;html=1;rounded=0;endFill=0;startArrow=classic;startFill=1;" parent="WIyWlLk6GJQsqaUBKTNV-1" source="vGBTADAAOYeY_URPficA-181" target="vGBTADAAOYeY_URPficA-154" edge="1">
          <mxGeometry width="50" height="50" relative="1" as="geometry">
            <mxPoint x="-1280" y="683" as="sourcePoint" />
            <mxPoint x="-1230" y="633" as="targetPoint" />
          </mxGeometry>
        </mxCell>
        <mxCell id="vGBTADAAOYeY_URPficA-258" value="&amp;lt;&amp;lt;extend&amp;gt;&amp;gt;" style="edgeLabel;html=1;align=center;verticalAlign=middle;resizable=0;points=[];" parent="vGBTADAAOYeY_URPficA-241" vertex="1" connectable="0">
          <mxGeometry x="0.0571" y="-1" relative="1" as="geometry">
            <mxPoint as="offset" />
          </mxGeometry>
        </mxCell>
        <mxCell id="vGBTADAAOYeY_URPficA-242" value="" style="endArrow=classic;dashed=1;html=1;rounded=0;startArrow=none;startFill=0;endFill=1;" parent="WIyWlLk6GJQsqaUBKTNV-1" source="vGBTADAAOYeY_URPficA-154" target="vGBTADAAOYeY_URPficA-182" edge="1">
          <mxGeometry width="50" height="50" relative="1" as="geometry">
            <mxPoint x="-1740" y="613" as="sourcePoint" />
            <mxPoint x="-1690" y="563" as="targetPoint" />
          </mxGeometry>
        </mxCell>
        <mxCell id="vGBTADAAOYeY_URPficA-257" value="&amp;lt;&amp;lt;extend&amp;gt;&amp;gt;" style="edgeLabel;html=1;align=center;verticalAlign=middle;resizable=0;points=[];" parent="vGBTADAAOYeY_URPficA-242" vertex="1" connectable="0">
          <mxGeometry x="0.1765" relative="1" as="geometry">
            <mxPoint as="offset" />
          </mxGeometry>
        </mxCell>
        <mxCell id="vGBTADAAOYeY_URPficA-245" value="" style="endArrow=none;html=1;rounded=0;" parent="WIyWlLk6GJQsqaUBKTNV-1" source="vGBTADAAOYeY_URPficA-160" target="vGBTADAAOYeY_URPficA-154" edge="1">
          <mxGeometry width="50" height="50" relative="1" as="geometry">
            <mxPoint x="-1740" y="603" as="sourcePoint" />
            <mxPoint x="-1690" y="553" as="targetPoint" />
          </mxGeometry>
        </mxCell>
        <mxCell id="vGBTADAAOYeY_URPficA-246" value="" style="endArrow=none;html=1;rounded=0;" parent="WIyWlLk6GJQsqaUBKTNV-1" source="vGBTADAAOYeY_URPficA-263" target="vGBTADAAOYeY_URPficA-161" edge="1">
          <mxGeometry width="50" height="50" relative="1" as="geometry">
            <mxPoint x="-1650" y="1063" as="sourcePoint" />
            <mxPoint x="-1600" y="1013" as="targetPoint" />
          </mxGeometry>
        </mxCell>
        <mxCell id="vGBTADAAOYeY_URPficA-248" value="" style="endArrow=none;dashed=1;html=1;rounded=0;endFill=0;startArrow=classic;startFill=1;" parent="WIyWlLk6GJQsqaUBKTNV-1" source="vGBTADAAOYeY_URPficA-218" target="vGBTADAAOYeY_URPficA-233" edge="1">
          <mxGeometry width="50" height="50" relative="1" as="geometry">
            <mxPoint x="-1650" y="753" as="sourcePoint" />
            <mxPoint x="-1600" y="703" as="targetPoint" />
          </mxGeometry>
        </mxCell>
        <mxCell id="vGBTADAAOYeY_URPficA-255" value="&amp;lt;&amp;lt;include&amp;gt;&amp;gt;" style="edgeLabel;html=1;align=center;verticalAlign=middle;resizable=0;points=[];" parent="vGBTADAAOYeY_URPficA-248" vertex="1" connectable="0">
          <mxGeometry x="-0.1" y="4" relative="1" as="geometry">
            <mxPoint as="offset" />
          </mxGeometry>
        </mxCell>
        <mxCell id="vGBTADAAOYeY_URPficA-249" value="&amp;lt;&amp;lt;include&amp;gt;&amp;gt;" style="endArrow=none;dashed=1;html=1;rounded=0;startArrow=classic;startFill=1;" parent="WIyWlLk6GJQsqaUBKTNV-1" source="vGBTADAAOYeY_URPficA-225" target="vGBTADAAOYeY_URPficA-233" edge="1">
          <mxGeometry width="50" height="50" relative="1" as="geometry">
            <mxPoint x="-1640" y="683" as="sourcePoint" />
            <mxPoint x="-1590" y="633" as="targetPoint" />
          </mxGeometry>
        </mxCell>
        <mxCell id="vGBTADAAOYeY_URPficA-259" value="&lt;font style=&quot;font-size: 24px;&quot;&gt;Diagramme de sequence&lt;/font&gt;" style="text;html=1;strokeColor=none;fillColor=none;align=center;verticalAlign=middle;whiteSpace=wrap;rounded=0;" parent="WIyWlLk6GJQsqaUBKTNV-1" vertex="1">
          <mxGeometry x="-1890" y="1430" width="400" height="30" as="geometry" />
        </mxCell>
        <mxCell id="vGBTADAAOYeY_URPficA-261" value="Consulter dashboard" style="ellipse;whiteSpace=wrap;html=1;" parent="WIyWlLk6GJQsqaUBKTNV-1" vertex="1">
          <mxGeometry x="-1925" y="470" width="120" height="80" as="geometry" />
        </mxCell>
        <mxCell id="vGBTADAAOYeY_URPficA-262" value="" style="endArrow=none;html=1;rounded=0;" parent="WIyWlLk6GJQsqaUBKTNV-1" source="vGBTADAAOYeY_URPficA-261" target="vGBTADAAOYeY_URPficA-150" edge="1">
          <mxGeometry width="50" height="50" relative="1" as="geometry">
            <mxPoint x="-2018" y="490" as="sourcePoint" />
            <mxPoint x="-1968" y="440" as="targetPoint" />
          </mxGeometry>
        </mxCell>
        <mxCell id="vGBTADAAOYeY_URPficA-263" value="Contacter le zoo" style="ellipse;whiteSpace=wrap;html=1;" parent="WIyWlLk6GJQsqaUBKTNV-1" vertex="1">
          <mxGeometry x="-1930" y="1135" width="120" height="80" as="geometry" />
        </mxCell>
        <mxCell id="vGBTADAAOYeY_URPficA-264" value="" style="endArrow=none;html=1;rounded=0;" parent="WIyWlLk6GJQsqaUBKTNV-1" source="vGBTADAAOYeY_URPficA-263" target="vGBTADAAOYeY_URPficA-230" edge="1">
          <mxGeometry width="50" height="50" relative="1" as="geometry">
            <mxPoint x="-1920" y="1105" as="sourcePoint" />
            <mxPoint x="-2075" y="1105" as="targetPoint" />
          </mxGeometry>
        </mxCell>
        <mxCell id="4LRHIKeWMjSb41_VlCtG-0" value="&lt;font style=&quot;font-size: 24px;&quot;&gt;Modèle Conceptuel des Données - MCD&lt;/font&gt;" style="text;html=1;strokeColor=none;fillColor=none;align=center;verticalAlign=middle;whiteSpace=wrap;rounded=0;" parent="WIyWlLk6GJQsqaUBKTNV-1" vertex="1">
          <mxGeometry x="-100" y="140" width="400" height="30" as="geometry" />
        </mxCell>
        <mxCell id="4LRHIKeWMjSb41_VlCtG-1" value="&lt;span style=&quot;color: rgb(0, 0, 0); font-family: Helvetica; font-size: 24px; font-style: normal; font-variant-ligatures: normal; font-variant-caps: normal; font-weight: 400; letter-spacing: normal; orphans: 2; text-align: center; text-indent: 0px; text-transform: none; widows: 2; word-spacing: 0px; -webkit-text-stroke-width: 0px; background-color: rgb(251, 251, 251); text-decoration-thickness: initial; text-decoration-style: initial; text-decoration-color: initial; float: none; display: inline !important;&quot;&gt;Modèle Logique des Données - MLD&lt;/span&gt;" style="text;whiteSpace=wrap;html=1;" parent="WIyWlLk6GJQsqaUBKTNV-1" vertex="1">
          <mxGeometry x="780" y="1240" width="450" height="50" as="geometry" />
        </mxCell>
        <mxCell id="4LRHIKeWMjSb41_VlCtG-2" value="&lt;span style=&quot;color: rgb(0, 0, 0); font-family: Helvetica; font-size: 24px; font-style: normal; font-variant-ligatures: normal; font-variant-caps: normal; font-weight: 400; letter-spacing: normal; orphans: 2; text-align: center; text-indent: 0px; text-transform: none; widows: 2; word-spacing: 0px; -webkit-text-stroke-width: 0px; background-color: rgb(251, 251, 251); text-decoration-thickness: initial; text-decoration-style: initial; text-decoration-color: initial; float: none; display: inline !important;&quot;&gt;Modèle Physique des Données - MPD&lt;/span&gt;" style="text;whiteSpace=wrap;html=1;" parent="WIyWlLk6GJQsqaUBKTNV-1" vertex="1">
          <mxGeometry x="1640" y="1230" width="450" height="50" as="geometry" />
        </mxCell>
        <mxCell id="KLFaV9kwgCl4LkjTqqDa-0" value="Services" style="swimlane;fontStyle=0;childLayout=stackLayout;horizontal=1;startSize=30;horizontalStack=0;resizeParent=1;resizeParentMax=0;resizeLast=0;collapsible=1;marginBottom=0;whiteSpace=wrap;html=1;" vertex="1" parent="WIyWlLk6GJQsqaUBKTNV-1">
          <mxGeometry x="-720" y="80" width="140" height="120" as="geometry" />
        </mxCell>
        <mxCell id="KLFaV9kwgCl4LkjTqqDa-1" value="Item 1" style="text;strokeColor=none;fillColor=none;align=left;verticalAlign=middle;spacingLeft=4;spacingRight=4;overflow=hidden;points=[[0,0.5],[1,0.5]];portConstraint=eastwest;rotatable=0;whiteSpace=wrap;html=1;" vertex="1" parent="KLFaV9kwgCl4LkjTqqDa-0">
          <mxGeometry y="30" width="140" height="30" as="geometry" />
        </mxCell>
        <mxCell id="KLFaV9kwgCl4LkjTqqDa-2" value="Item 2" style="text;strokeColor=none;fillColor=none;align=left;verticalAlign=middle;spacingLeft=4;spacingRight=4;overflow=hidden;points=[[0,0.5],[1,0.5]];portConstraint=eastwest;rotatable=0;whiteSpace=wrap;html=1;" vertex="1" parent="KLFaV9kwgCl4LkjTqqDa-0">
          <mxGeometry y="60" width="140" height="30" as="geometry" />
        </mxCell>
        <mxCell id="KLFaV9kwgCl4LkjTqqDa-3" value="Item 3" style="text;strokeColor=none;fillColor=none;align=left;verticalAlign=middle;spacingLeft=4;spacingRight=4;overflow=hidden;points=[[0,0.5],[1,0.5]];portConstraint=eastwest;rotatable=0;whiteSpace=wrap;html=1;" vertex="1" parent="KLFaV9kwgCl4LkjTqqDa-0">
          <mxGeometry y="90" width="140" height="30" as="geometry" />
        </mxCell>
        <mxCell id="KLFaV9kwgCl4LkjTqqDa-4" value="Hourly" style="swimlane;fontStyle=0;childLayout=stackLayout;horizontal=1;startSize=30;horizontalStack=0;resizeParent=1;resizeParentMax=0;resizeLast=0;collapsible=1;marginBottom=0;whiteSpace=wrap;html=1;" vertex="1" parent="WIyWlLk6GJQsqaUBKTNV-1">
          <mxGeometry x="-740" y="390" width="140" height="120" as="geometry" />
        </mxCell>
        <mxCell id="KLFaV9kwgCl4LkjTqqDa-5" value="Item 1" style="text;strokeColor=none;fillColor=none;align=left;verticalAlign=middle;spacingLeft=4;spacingRight=4;overflow=hidden;points=[[0,0.5],[1,0.5]];portConstraint=eastwest;rotatable=0;whiteSpace=wrap;html=1;" vertex="1" parent="KLFaV9kwgCl4LkjTqqDa-4">
          <mxGeometry y="30" width="140" height="30" as="geometry" />
        </mxCell>
        <mxCell id="KLFaV9kwgCl4LkjTqqDa-6" value="Item 2" style="text;strokeColor=none;fillColor=none;align=left;verticalAlign=middle;spacingLeft=4;spacingRight=4;overflow=hidden;points=[[0,0.5],[1,0.5]];portConstraint=eastwest;rotatable=0;whiteSpace=wrap;html=1;" vertex="1" parent="KLFaV9kwgCl4LkjTqqDa-4">
          <mxGeometry y="60" width="140" height="30" as="geometry" />
        </mxCell>
        <mxCell id="KLFaV9kwgCl4LkjTqqDa-7" value="Item 3" style="text;strokeColor=none;fillColor=none;align=left;verticalAlign=middle;spacingLeft=4;spacingRight=4;overflow=hidden;points=[[0,0.5],[1,0.5]];portConstraint=eastwest;rotatable=0;whiteSpace=wrap;html=1;" vertex="1" parent="KLFaV9kwgCl4LkjTqqDa-4">
          <mxGeometry y="90" width="140" height="30" as="geometry" />
        </mxCell>
        <mxCell id="KLFaV9kwgCl4LkjTqqDa-8" value="User&lt;br&gt;" style="swimlane;fontStyle=0;childLayout=stackLayout;horizontal=1;startSize=30;horizontalStack=0;resizeParent=1;resizeParentMax=0;resizeLast=0;collapsible=1;marginBottom=0;whiteSpace=wrap;html=1;" vertex="1" parent="WIyWlLk6GJQsqaUBKTNV-1">
          <mxGeometry x="-740" y="695" width="140" height="120" as="geometry" />
        </mxCell>
        <mxCell id="KLFaV9kwgCl4LkjTqqDa-9" value="Item 1" style="text;strokeColor=none;fillColor=none;align=left;verticalAlign=middle;spacingLeft=4;spacingRight=4;overflow=hidden;points=[[0,0.5],[1,0.5]];portConstraint=eastwest;rotatable=0;whiteSpace=wrap;html=1;" vertex="1" parent="KLFaV9kwgCl4LkjTqqDa-8">
          <mxGeometry y="30" width="140" height="30" as="geometry" />
        </mxCell>
        <mxCell id="KLFaV9kwgCl4LkjTqqDa-10" value="Item 2" style="text;strokeColor=none;fillColor=none;align=left;verticalAlign=middle;spacingLeft=4;spacingRight=4;overflow=hidden;points=[[0,0.5],[1,0.5]];portConstraint=eastwest;rotatable=0;whiteSpace=wrap;html=1;" vertex="1" parent="KLFaV9kwgCl4LkjTqqDa-8">
          <mxGeometry y="60" width="140" height="30" as="geometry" />
        </mxCell>
        <mxCell id="KLFaV9kwgCl4LkjTqqDa-11" value="Item 3" style="text;strokeColor=none;fillColor=none;align=left;verticalAlign=middle;spacingLeft=4;spacingRight=4;overflow=hidden;points=[[0,0.5],[1,0.5]];portConstraint=eastwest;rotatable=0;whiteSpace=wrap;html=1;" vertex="1" parent="KLFaV9kwgCl4LkjTqqDa-8">
          <mxGeometry y="90" width="140" height="30" as="geometry" />
        </mxCell>
        <mxCell id="KLFaV9kwgCl4LkjTqqDa-12" value="Role&lt;br&gt;" style="swimlane;fontStyle=0;childLayout=stackLayout;horizontal=1;startSize=30;horizontalStack=0;resizeParent=1;resizeParentMax=0;resizeLast=0;collapsible=1;marginBottom=0;whiteSpace=wrap;html=1;" vertex="1" parent="WIyWlLk6GJQsqaUBKTNV-1">
          <mxGeometry x="-750" y="1005" width="140" height="120" as="geometry" />
        </mxCell>
        <mxCell id="KLFaV9kwgCl4LkjTqqDa-13" value="Item 1" style="text;strokeColor=none;fillColor=none;align=left;verticalAlign=middle;spacingLeft=4;spacingRight=4;overflow=hidden;points=[[0,0.5],[1,0.5]];portConstraint=eastwest;rotatable=0;whiteSpace=wrap;html=1;" vertex="1" parent="KLFaV9kwgCl4LkjTqqDa-12">
          <mxGeometry y="30" width="140" height="30" as="geometry" />
        </mxCell>
        <mxCell id="KLFaV9kwgCl4LkjTqqDa-14" value="Item 2" style="text;strokeColor=none;fillColor=none;align=left;verticalAlign=middle;spacingLeft=4;spacingRight=4;overflow=hidden;points=[[0,0.5],[1,0.5]];portConstraint=eastwest;rotatable=0;whiteSpace=wrap;html=1;" vertex="1" parent="KLFaV9kwgCl4LkjTqqDa-12">
          <mxGeometry y="60" width="140" height="30" as="geometry" />
        </mxCell>
        <mxCell id="KLFaV9kwgCl4LkjTqqDa-15" value="Item 3" style="text;strokeColor=none;fillColor=none;align=left;verticalAlign=middle;spacingLeft=4;spacingRight=4;overflow=hidden;points=[[0,0.5],[1,0.5]];portConstraint=eastwest;rotatable=0;whiteSpace=wrap;html=1;" vertex="1" parent="KLFaV9kwgCl4LkjTqqDa-12">
          <mxGeometry y="90" width="140" height="30" as="geometry" />
        </mxCell>
        <mxCell id="KLFaV9kwgCl4LkjTqqDa-16" value="Picture" style="swimlane;fontStyle=0;childLayout=stackLayout;horizontal=1;startSize=30;horizontalStack=0;resizeParent=1;resizeParentMax=0;resizeLast=0;collapsible=1;marginBottom=0;whiteSpace=wrap;html=1;" vertex="1" parent="WIyWlLk6GJQsqaUBKTNV-1">
          <mxGeometry x="-490" y="220" width="140" height="120" as="geometry" />
        </mxCell>
        <mxCell id="KLFaV9kwgCl4LkjTqqDa-17" value="Item 1" style="text;strokeColor=none;fillColor=none;align=left;verticalAlign=middle;spacingLeft=4;spacingRight=4;overflow=hidden;points=[[0,0.5],[1,0.5]];portConstraint=eastwest;rotatable=0;whiteSpace=wrap;html=1;" vertex="1" parent="KLFaV9kwgCl4LkjTqqDa-16">
          <mxGeometry y="30" width="140" height="30" as="geometry" />
        </mxCell>
        <mxCell id="KLFaV9kwgCl4LkjTqqDa-18" value="Item 2" style="text;strokeColor=none;fillColor=none;align=left;verticalAlign=middle;spacingLeft=4;spacingRight=4;overflow=hidden;points=[[0,0.5],[1,0.5]];portConstraint=eastwest;rotatable=0;whiteSpace=wrap;html=1;" vertex="1" parent="KLFaV9kwgCl4LkjTqqDa-16">
          <mxGeometry y="60" width="140" height="30" as="geometry" />
        </mxCell>
        <mxCell id="KLFaV9kwgCl4LkjTqqDa-19" value="Item 3" style="text;strokeColor=none;fillColor=none;align=left;verticalAlign=middle;spacingLeft=4;spacingRight=4;overflow=hidden;points=[[0,0.5],[1,0.5]];portConstraint=eastwest;rotatable=0;whiteSpace=wrap;html=1;" vertex="1" parent="KLFaV9kwgCl4LkjTqqDa-16">
          <mxGeometry y="90" width="140" height="30" as="geometry" />
        </mxCell>
        <mxCell id="KLFaV9kwgCl4LkjTqqDa-21" value="Zoo" style="swimlane;fontStyle=0;childLayout=stackLayout;horizontal=1;startSize=30;horizontalStack=0;resizeParent=1;resizeParentMax=0;resizeLast=0;collapsible=1;marginBottom=0;whiteSpace=wrap;html=1;" vertex="1" parent="WIyWlLk6GJQsqaUBKTNV-1">
          <mxGeometry x="-710" y="230" width="140" height="120" as="geometry" />
        </mxCell>
        <mxCell id="KLFaV9kwgCl4LkjTqqDa-22" value="Item 1" style="text;strokeColor=none;fillColor=none;align=left;verticalAlign=middle;spacingLeft=4;spacingRight=4;overflow=hidden;points=[[0,0.5],[1,0.5]];portConstraint=eastwest;rotatable=0;whiteSpace=wrap;html=1;" vertex="1" parent="KLFaV9kwgCl4LkjTqqDa-21">
          <mxGeometry y="30" width="140" height="30" as="geometry" />
        </mxCell>
        <mxCell id="KLFaV9kwgCl4LkjTqqDa-23" value="Item 2" style="text;strokeColor=none;fillColor=none;align=left;verticalAlign=middle;spacingLeft=4;spacingRight=4;overflow=hidden;points=[[0,0.5],[1,0.5]];portConstraint=eastwest;rotatable=0;whiteSpace=wrap;html=1;" vertex="1" parent="KLFaV9kwgCl4LkjTqqDa-21">
          <mxGeometry y="60" width="140" height="30" as="geometry" />
        </mxCell>
        <mxCell id="KLFaV9kwgCl4LkjTqqDa-24" value="Item 3" style="text;strokeColor=none;fillColor=none;align=left;verticalAlign=middle;spacingLeft=4;spacingRight=4;overflow=hidden;points=[[0,0.5],[1,0.5]];portConstraint=eastwest;rotatable=0;whiteSpace=wrap;html=1;" vertex="1" parent="KLFaV9kwgCl4LkjTqqDa-21">
          <mxGeometry y="90" width="140" height="30" as="geometry" />
        </mxCell>
        <mxCell id="KLFaV9kwgCl4LkjTqqDa-25" value="Notice" style="swimlane;fontStyle=0;childLayout=stackLayout;horizontal=1;startSize=30;horizontalStack=0;resizeParent=1;resizeParentMax=0;resizeLast=0;collapsible=1;marginBottom=0;whiteSpace=wrap;html=1;" vertex="1" parent="WIyWlLk6GJQsqaUBKTNV-1">
          <mxGeometry x="-750" y="546" width="140" height="120" as="geometry" />
        </mxCell>
        <mxCell id="KLFaV9kwgCl4LkjTqqDa-26" value="Item 1" style="text;strokeColor=none;fillColor=none;align=left;verticalAlign=middle;spacingLeft=4;spacingRight=4;overflow=hidden;points=[[0,0.5],[1,0.5]];portConstraint=eastwest;rotatable=0;whiteSpace=wrap;html=1;" vertex="1" parent="KLFaV9kwgCl4LkjTqqDa-25">
          <mxGeometry y="30" width="140" height="30" as="geometry" />
        </mxCell>
        <mxCell id="KLFaV9kwgCl4LkjTqqDa-27" value="Item 2" style="text;strokeColor=none;fillColor=none;align=left;verticalAlign=middle;spacingLeft=4;spacingRight=4;overflow=hidden;points=[[0,0.5],[1,0.5]];portConstraint=eastwest;rotatable=0;whiteSpace=wrap;html=1;" vertex="1" parent="KLFaV9kwgCl4LkjTqqDa-25">
          <mxGeometry y="60" width="140" height="30" as="geometry" />
        </mxCell>
        <mxCell id="KLFaV9kwgCl4LkjTqqDa-28" value="Item 3" style="text;strokeColor=none;fillColor=none;align=left;verticalAlign=middle;spacingLeft=4;spacingRight=4;overflow=hidden;points=[[0,0.5],[1,0.5]];portConstraint=eastwest;rotatable=0;whiteSpace=wrap;html=1;" vertex="1" parent="KLFaV9kwgCl4LkjTqqDa-25">
          <mxGeometry y="90" width="140" height="30" as="geometry" />
        </mxCell>
        <mxCell id="KLFaV9kwgCl4LkjTqqDa-29" value="Report" style="swimlane;fontStyle=0;childLayout=stackLayout;horizontal=1;startSize=30;horizontalStack=0;resizeParent=1;resizeParentMax=0;resizeLast=0;collapsible=1;marginBottom=0;whiteSpace=wrap;html=1;" vertex="1" parent="WIyWlLk6GJQsqaUBKTNV-1">
          <mxGeometry x="-740" y="845" width="140" height="130" as="geometry" />
        </mxCell>
        <mxCell id="KLFaV9kwgCl4LkjTqqDa-30" value="Item 1" style="text;strokeColor=none;fillColor=none;align=left;verticalAlign=middle;spacingLeft=4;spacingRight=4;overflow=hidden;points=[[0,0.5],[1,0.5]];portConstraint=eastwest;rotatable=0;whiteSpace=wrap;html=1;" vertex="1" parent="KLFaV9kwgCl4LkjTqqDa-29">
          <mxGeometry y="30" width="140" height="30" as="geometry" />
        </mxCell>
        <mxCell id="KLFaV9kwgCl4LkjTqqDa-31" value="Item 2" style="text;strokeColor=none;fillColor=none;align=left;verticalAlign=middle;spacingLeft=4;spacingRight=4;overflow=hidden;points=[[0,0.5],[1,0.5]];portConstraint=eastwest;rotatable=0;whiteSpace=wrap;html=1;" vertex="1" parent="KLFaV9kwgCl4LkjTqqDa-29">
          <mxGeometry y="60" width="140" height="40" as="geometry" />
        </mxCell>
        <mxCell id="KLFaV9kwgCl4LkjTqqDa-32" value="Item 3" style="text;strokeColor=none;fillColor=none;align=left;verticalAlign=middle;spacingLeft=4;spacingRight=4;overflow=hidden;points=[[0,0.5],[1,0.5]];portConstraint=eastwest;rotatable=0;whiteSpace=wrap;html=1;" vertex="1" parent="KLFaV9kwgCl4LkjTqqDa-29">
          <mxGeometry y="100" width="140" height="30" as="geometry" />
        </mxCell>
        <mxCell id="KLFaV9kwgCl4LkjTqqDa-33" value="Habitats" style="swimlane;fontStyle=0;childLayout=stackLayout;horizontal=1;startSize=30;horizontalStack=0;resizeParent=1;resizeParentMax=0;resizeLast=0;collapsible=1;marginBottom=0;whiteSpace=wrap;html=1;" vertex="1" parent="WIyWlLk6GJQsqaUBKTNV-1">
          <mxGeometry x="-500" y="75" width="140" height="120" as="geometry" />
        </mxCell>
        <mxCell id="KLFaV9kwgCl4LkjTqqDa-34" value="Item 1" style="text;strokeColor=none;fillColor=none;align=left;verticalAlign=middle;spacingLeft=4;spacingRight=4;overflow=hidden;points=[[0,0.5],[1,0.5]];portConstraint=eastwest;rotatable=0;whiteSpace=wrap;html=1;" vertex="1" parent="KLFaV9kwgCl4LkjTqqDa-33">
          <mxGeometry y="30" width="140" height="30" as="geometry" />
        </mxCell>
        <mxCell id="KLFaV9kwgCl4LkjTqqDa-35" value="Item 2" style="text;strokeColor=none;fillColor=none;align=left;verticalAlign=middle;spacingLeft=4;spacingRight=4;overflow=hidden;points=[[0,0.5],[1,0.5]];portConstraint=eastwest;rotatable=0;whiteSpace=wrap;html=1;" vertex="1" parent="KLFaV9kwgCl4LkjTqqDa-33">
          <mxGeometry y="60" width="140" height="30" as="geometry" />
        </mxCell>
        <mxCell id="KLFaV9kwgCl4LkjTqqDa-36" value="Item 3" style="text;strokeColor=none;fillColor=none;align=left;verticalAlign=middle;spacingLeft=4;spacingRight=4;overflow=hidden;points=[[0,0.5],[1,0.5]];portConstraint=eastwest;rotatable=0;whiteSpace=wrap;html=1;" vertex="1" parent="KLFaV9kwgCl4LkjTqqDa-33">
          <mxGeometry y="90" width="140" height="30" as="geometry" />
        </mxCell>
        <mxCell id="KLFaV9kwgCl4LkjTqqDa-37" value="Animals" style="swimlane;fontStyle=0;childLayout=stackLayout;horizontal=1;startSize=30;horizontalStack=0;resizeParent=1;resizeParentMax=0;resizeLast=0;collapsible=1;marginBottom=0;whiteSpace=wrap;html=1;" vertex="1" parent="WIyWlLk6GJQsqaUBKTNV-1">
          <mxGeometry x="-490" y="380" width="140" height="120" as="geometry" />
        </mxCell>
        <mxCell id="KLFaV9kwgCl4LkjTqqDa-38" value="Item 1" style="text;strokeColor=none;fillColor=none;align=left;verticalAlign=middle;spacingLeft=4;spacingRight=4;overflow=hidden;points=[[0,0.5],[1,0.5]];portConstraint=eastwest;rotatable=0;whiteSpace=wrap;html=1;" vertex="1" parent="KLFaV9kwgCl4LkjTqqDa-37">
          <mxGeometry y="30" width="140" height="30" as="geometry" />
        </mxCell>
        <mxCell id="KLFaV9kwgCl4LkjTqqDa-39" value="Item 2" style="text;strokeColor=none;fillColor=none;align=left;verticalAlign=middle;spacingLeft=4;spacingRight=4;overflow=hidden;points=[[0,0.5],[1,0.5]];portConstraint=eastwest;rotatable=0;whiteSpace=wrap;html=1;" vertex="1" parent="KLFaV9kwgCl4LkjTqqDa-37">
          <mxGeometry y="60" width="140" height="30" as="geometry" />
        </mxCell>
        <mxCell id="KLFaV9kwgCl4LkjTqqDa-40" value="Item 3" style="text;strokeColor=none;fillColor=none;align=left;verticalAlign=middle;spacingLeft=4;spacingRight=4;overflow=hidden;points=[[0,0.5],[1,0.5]];portConstraint=eastwest;rotatable=0;whiteSpace=wrap;html=1;" vertex="1" parent="KLFaV9kwgCl4LkjTqqDa-37">
          <mxGeometry y="90" width="140" height="30" as="geometry" />
        </mxCell>
      </root>
    </mxGraphModel>
  </diagram>
</mxfile>
